solid OpenSCAD_Model
  facet normal -1 0 0
    outer loop
      vertex 0 0 0
      vertex 0 51 4
      vertex 0 51 0
    endloop
  endfacet
  facet normal -1 -0 0
    outer loop
      vertex 0 51 4
      vertex 0 0 0
      vertex 0 0 4
    endloop
  endfacet
  facet normal 0 0 1
    outer loop
      vertex 51 51 4
      vertex 49 49 4
      vertex 51 0 4
    endloop
  endfacet
  facet normal 0 0 1
    outer loop
      vertex 51 51 4
      vertex 2 49 4
      vertex 49 49 4
    endloop
  endfacet
  facet normal 0 0 1
    outer loop
      vertex 2 49 4
      vertex 0 51 4
      vertex 2 2 4
    endloop
  endfacet
  facet normal -0 0 1
    outer loop
      vertex 0 51 4
      vertex 2 49 4
      vertex 51 51 4
    endloop
  endfacet
  facet normal -0 0 1
    outer loop
      vertex 49 2 4
      vertex 51 0 4
      vertex 49 49 4
    endloop
  endfacet
  facet normal -0 0 1
    outer loop
      vertex 2 2 4
      vertex 51 0 4
      vertex 49 2 4
    endloop
  endfacet
  facet normal 0 0 1
    outer loop
      vertex 2 2 4
      vertex 0 0 4
      vertex 51 0 4
    endloop
  endfacet
  facet normal 0 0 1
    outer loop
      vertex 0 0 4
      vertex 2 2 4
      vertex 0 51 4
    endloop
  endfacet
  facet normal 1 -0 0
    outer loop
      vertex 51 0 4
      vertex 51 51 0
      vertex 51 51 4
    endloop
  endfacet
  facet normal 1 0 0
    outer loop
      vertex 51 51 0
      vertex 51 0 4
      vertex 51 0 0
    endloop
  endfacet
  facet normal 0 0 -1
    outer loop
      vertex 51 0 0
      vertex 44 5.5 0
      vertex 51 51 0
    endloop
  endfacet
  facet normal 0 0 -1
    outer loop
      vertex 51 0 0
      vertex 9 5.5 0
      vertex 44 5.5 0
    endloop
  endfacet
  facet normal -0 0 -1
    outer loop
      vertex 9 5.5 0
      vertex 0 0 0
      vertex 9 45.5 0
    endloop
  endfacet
  facet normal 0 0 -1
    outer loop
      vertex 0 0 0
      vertex 9 5.5 0
      vertex 51 0 0
    endloop
  endfacet
  facet normal 0 0 -1
    outer loop
      vertex 44 45.5 0
      vertex 51 51 0
      vertex 44 5.5 0
    endloop
  endfacet
  facet normal 0 0 -1
    outer loop
      vertex 9 45.5 0
      vertex 51 51 0
      vertex 44 45.5 0
    endloop
  endfacet
  facet normal 0 0 -1
    outer loop
      vertex 9 45.5 0
      vertex 0 51 0
      vertex 51 51 0
    endloop
  endfacet
  facet normal 0 0 -1
    outer loop
      vertex 0 51 0
      vertex 9 45.5 0
      vertex 0 0 0
    endloop
  endfacet
  facet normal 0 -1 0
    outer loop
      vertex 0 0 0
      vertex 51 0 4
      vertex 0 0 4
    endloop
  endfacet
  facet normal 0 -1 -0
    outer loop
      vertex 51 0 4
      vertex 0 0 0
      vertex 51 0 0
    endloop
  endfacet
  facet normal 0 1 -0
    outer loop
      vertex 51 51 0
      vertex 0 51 4
      vertex 51 51 4
    endloop
  endfacet
  facet normal 0 1 0
    outer loop
      vertex 0 51 4
      vertex 51 51 0
      vertex 0 51 0
    endloop
  endfacet
  facet normal -1 0 0
    outer loop
      vertex 2 2 4
      vertex 2 49 8
      vertex 2 49 4
    endloop
  endfacet
  facet normal -1 -0 0
    outer loop
      vertex 2 49 8
      vertex 2 2 4
      vertex 2 2 8
    endloop
  endfacet
  facet normal 0 0 1
    outer loop
      vertex 49 49 8
      vertex 44 45.5 8
      vertex 49 2 8
    endloop
  endfacet
  facet normal -0 0 1
    outer loop
      vertex 2 49 8
      vertex 44 45.5 8
      vertex 49 49 8
    endloop
  endfacet
  facet normal 0 0 1
    outer loop
      vertex 5 45.5 8
      vertex 2 49 8
      vertex 5 5.5 8
    endloop
  endfacet
  facet normal 0 0 1
    outer loop
      vertex 44 45.5 8
      vertex 2 49 8
      vertex 5 45.5 8
    endloop
  endfacet
  facet normal -0 0 1
    outer loop
      vertex 44 5.5 8
      vertex 49 2 8
      vertex 44 45.5 8
    endloop
  endfacet
  facet normal 0 0 1
    outer loop
      vertex 2 2 8
      vertex 44 5.5 8
      vertex 5 5.5 8
    endloop
  endfacet
  facet normal 0 0 1
    outer loop
      vertex 44 5.5 8
      vertex 2 2 8
      vertex 49 2 8
    endloop
  endfacet
  facet normal 0 0 1
    outer loop
      vertex 2 2 8
      vertex 5 5.5 8
      vertex 2 49 8
    endloop
  endfacet
  facet normal 1 -0 0
    outer loop
      vertex 49 2 8
      vertex 49 49 4
      vertex 49 49 8
    endloop
  endfacet
  facet normal 1 0 0
    outer loop
      vertex 49 49 4
      vertex 49 2 8
      vertex 49 2 4
    endloop
  endfacet
  facet normal 0 -1 0
    outer loop
      vertex 2 2 4
      vertex 49 2 8
      vertex 2 2 8
    endloop
  endfacet
  facet normal 0 -1 -0
    outer loop
      vertex 49 2 8
      vertex 2 2 4
      vertex 49 2 4
    endloop
  endfacet
  facet normal 0 1 -0
    outer loop
      vertex 49 49 4
      vertex 2 49 8
      vertex 49 49 8
    endloop
  endfacet
  facet normal 0 1 0
    outer loop
      vertex 2 49 8
      vertex 49 49 4
      vertex 2 49 4
    endloop
  endfacet
  facet normal 1 -0 0
    outer loop
      vertex 9 5.5 5
      vertex 9 45.5 0
      vertex 9 45.5 5
    endloop
  endfacet
  facet normal 1 0 0
    outer loop
      vertex 9 45.5 0
      vertex 9 5.5 5
      vertex 9 5.5 0
    endloop
  endfacet
  facet normal -1 0 0
    outer loop
      vertex 44 5.5 0
      vertex 44 45.5 8
      vertex 44 45.5 0
    endloop
  endfacet
  facet normal -1 -0 0
    outer loop
      vertex 44 45.5 8
      vertex 44 5.5 0
      vertex 44 5.5 8
    endloop
  endfacet
  facet normal 0 -1 0
    outer loop
      vertex 9 45.5 5
      vertex 5 45.5 8
      vertex 5 45.5 5
    endloop
  endfacet
  facet normal 0 -1 0
    outer loop
      vertex 5 45.5 8
      vertex 9 45.5 5
      vertex 44 45.5 8
    endloop
  endfacet
  facet normal 0 -1 0
    outer loop
      vertex 44 45.5 0
      vertex 9 45.5 5
      vertex 9 45.5 0
    endloop
  endfacet
  facet normal 0 -1 0
    outer loop
      vertex 9 45.5 5
      vertex 44 45.5 0
      vertex 44 45.5 8
    endloop
  endfacet
  facet normal 0 1 0
    outer loop
      vertex 44 5.5 8
      vertex 9 5.5 5
      vertex 5 5.5 8
    endloop
  endfacet
  facet normal 0 1 -0
    outer loop
      vertex 44 5.5 0
      vertex 9 5.5 5
      vertex 44 5.5 8
    endloop
  endfacet
  facet normal 0 1 0
    outer loop
      vertex 9 5.5 5
      vertex 44 5.5 0
      vertex 9 5.5 0
    endloop
  endfacet
  facet normal 0 1 0
    outer loop
      vertex 5 5.5 8
      vertex 9 5.5 5
      vertex 5 5.5 5
    endloop
  endfacet
  facet normal 1 -0 0
    outer loop
      vertex 5 5.5 8
      vertex 5 45.5 5
      vertex 5 45.5 8
    endloop
  endfacet
  facet normal 1 0 0
    outer loop
      vertex 5 45.5 5
      vertex 5 5.5 8
      vertex 5 5.5 5
    endloop
  endfacet
  facet normal -0 0 1
    outer loop
      vertex 5 45.5 5
      vertex 9 5.5 5
      vertex 9 45.5 5
    endloop
  endfacet
  facet normal 0 0 1
    outer loop
      vertex 9 5.5 5
      vertex 5 45.5 5
      vertex 5 5.5 5
    endloop
  endfacet
endsolid OpenSCAD_Model
